<?xml version="1.0" encoding="UTF-8" standalone="no"?>
<!-- Created with Inkscape (http://www.inkscape.org/) -->

<svg
   version="1.1"
   id="svg2"
   width="303.35999"
   height="226.56"
   viewBox="0 0 303.35999 226.56"
   sodipodi:docname="long_term_scenarios.svg"
   inkscape:version="1.2.1 (9c6d41e410, 2022-07-14)"
   xmlns:inkscape="http://www.inkscape.org/namespaces/inkscape"
   xmlns:sodipodi="http://sodipodi.sourceforge.net/DTD/sodipodi-0.dtd"
   xmlns="http://www.w3.org/2000/svg"
   xmlns:svg="http://www.w3.org/2000/svg">
  <defs
     id="defs6">
    <clipPath
       clipPathUnits="userSpaceOnUse"
       id="clipPath22">
      <path
         d="M 28.406864,14.129119 H 223.92 V 163.61817 H 28.406864 Z"
         id="path20" />
    </clipPath>
    <clipPath
       clipPathUnits="userSpaceOnUse"
       id="clipPath32">
      <path
         d="M 28.406864,14.129119 H 223.92 V 163.61817 H 28.406864 Z"
         id="path30" />
    </clipPath>
    <clipPath
       clipPathUnits="userSpaceOnUse"
       id="clipPath272">
      <path
         d="M 28.406864,14.129119 H 223.92 V 163.61817 H 28.406864 Z"
         id="path270" />
    </clipPath>
  </defs>
  <sodipodi:namedview
     id="namedview4"
     pagecolor="#ffffff"
     bordercolor="#666666"
     borderopacity="1.0"
     inkscape:showpageshadow="2"
     inkscape:pageopacity="0.0"
     inkscape:pagecheckerboard="0"
     inkscape:deskcolor="#d1d1d1"
     showgrid="false"
     inkscape:zoom="3.4118998"
     inkscape:cx="125.00367"
     inkscape:cy="113.57309"
     inkscape:window-width="2880"
     inkscape:window-height="1514"
     inkscape:window-x="2869"
     inkscape:window-y="-11"
     inkscape:window-maximized="1"
     inkscape:current-layer="g10">
    <inkscape:page
       x="0"
       y="0"
       id="page8"
       width="303.35999"
       height="226.56" />
  </sodipodi:namedview>
  <g
     id="g10"
     inkscape:groupmode="layer"
     inkscape:label="Page 1"
     transform="matrix(1.3333333,0,0,-1.3333333,0,226.56)">
    <path
       d="M 0,0 H 227.52 V 169.92 H 0 Z"
       style="fill:#ffffff;fill-opacity:1;fill-rule:nonzero;stroke:none"
       id="path12" />
    <path
       d="M 28.406864,14.129119 H 223.92 V 163.61817 H 28.406864 Z"
       style="fill:#ffffff;fill-opacity:1;fill-rule:nonzero;stroke:none"
       id="path14" />
    <g
       id="g16">
      <g
         id="g18"
         clip-path="url(#clipPath22)">
        <path
           d="M 28.406864,120.00838 V 52.325586 l 0.537124,13.288213 0.537124,-6.722812 0.537124,2.513753 0.537124,-8.19023 0.537124,4.45441 0.537124,-1.097232 0.537124,9.802392 0.537124,2.08921 0.537124,-3.379568 0.537124,2.064763 0.537124,-1.836583 0.537124,0.176519 0.537124,7.694082 0.537124,1.647206 0.537124,4.090207 0.537124,-7.198716 0.537124,-0.643618 0.537124,1.709523 0.537124,-5.939286 0.537124,-12.900704 0.537124,12.580504 0.537124,8.055694 0.537124,-4.630878 0.537124,-1.378488 0.537124,0.551954 0.537124,-7.751454 0.537124,6.413233 0.537124,3.760254 0.537124,-8.542352 0.537124,1.668938 0.537124,-4.135524 0.537124,0.342939 0.537124,-8.925621 0.537124,6.734948 0.537124,3.331231 0.537124,-1.648457 0.537124,4.050346 0.537124,-8.614579 0.537124,0.520124 0.537124,-9.368446 0.537124,9.900007 0.537124,3.74244 0.537124,3.933318 0.537124,7.104178 0.537124,-15.12354 0.537124,3.977733 0.537124,1.447081 0.537124,-0.326574 0.537124,5.264732 0.537124,-11.064022 0.537124,0.477833 0.537124,-4.515 0.537124,1.331517 0.537124,-6.47841 0.537124,5.523331 0.537124,4.038223 0.537124,12.00647 0.537124,-8.825796 0.537124,-4.188918 0.537124,-2.832593 0.537124,0.912643 0.537124,-9.87805 0.537124,18.801513 0.537124,1.515151 0.537124,-1.643309 0.537124,-8.355906 0.537124,-9.529338 0.537124,-2.597664 0.537124,-4.569661 0.537124,4.462585 0.537124,11.443346 0.537124,-8.473028 0.537124,-3.426343 0.537124,-7.137595 0.537124,-5.738917 0.537124,3.911326 0.537124,3.565631 0.537124,15.098376 0.537124,-7.216899 0.537124,-0.592523 0.537124,-0.291319 0.537124,-11.898744 0.537124,-5.101352 0.537124,12.343531 0.537124,-0.546508 0.537124,2.078307 0.537124,-3.945675 0.537124,-9.376863 0.537124,-5.89157 0.537124,1.955652 0.537124,-1.909689 0.537124,7.408036 0.537124,4.851015 0.537124,-0.387371 0.537124,-6.044369 0.537124,-3.378514 0.537124,-0.28657 0.537124,5.430243 0.537124,9.694683 0.537124,3.116545 0.537124,-8.4728 0.537124,-8.168238 0.537124,-4.182522 0.537124,-0.580181 0.537124,5.716758 0.537124,3.122289 0.537124,2.895895 0.537124,-5.923566 0.537124,-3.973796 0.537124,1.817985 0.537124,-6.026976 0.537124,3.334604 0.537124,2.00821 0.537124,-1.566553 0.537124,0.664891 0.537124,-3.016303 0.537124,-0.243089 0.537124,-1.043908 0.537124,1.802824 0.537124,-0.59987 0.537124,-0.08744 0.537124,-1.467761 0.537124,1.777446 0.537124,-0.931025 0.537124,-0.871341 0.537124,4.510451 0.537124,-2.782653 0.537124,-0.867452 0.537124,0.65719 0.537124,-2.824918 0.537124,0.02766 0.537124,-0.145922 0.537124,0.489883 0.537124,2.568524 0.53712,2.884941 0.53713,-3.435014 0.53712,-2.242575 0.53713,1.000859 0.53712,-0.709708 0.53712,0.739175 0.53713,0.139988 0.53712,-0.160024 0.53713,0.838597 0.53712,-2.376787 0.53712,1.385506 0.53713,-0.629569 0.53712,0.387998 0.53713,1.135385 0.53712,-1.198514 0.53712,0.45279 0.53713,-0.762827 0.53712,-0.133825 0.53713,-0.410418 0.53712,-0.322225 0.53712,-0.394467 0.53713,-0.221875 0.53712,0.517574 0.53713,0.561446 0.53712,-0.35668 0.53712,-0.27117 0.53713,1.162731 0.53712,-0.636211 0.53713,0.316043 0.53712,-0.593549 0.53712,0.327353 0.53713,-0.257903 0.53712,-0.620114 0.53713,0.620347 0.53712,0.318551 0.53712,-0.08881 0.53713,-0.394738 0.53712,0.05025 0.53713,0.512132 0.53712,-0.116256 0.53712,-0.567602 0.53713,0.207585 0.53712,0.494035 0.53713,-0.763714 0.53712,-0.01833 0.53712,-0.115641 0.53713,-0.350204 0.53712,0.319849 0.53713,0.591777 0.53712,-0.633611 0.53712,-0.235297 0.53713,0.66746 0.53712,-0.301646 0.53713,0.03957 0.53712,0.0074 0.53712,0.113495 0.53713,0.292364 0.53712,0.537765 0.53713,-0.2478 0.53712,-0.496053 0.53712,-0.136595 0.53713,-0.05428 0.53712,-0.282255 0.53713,0.03838 0.53712,0.180507 0.53712,0.24857 0.53713,-0.54012 0.53712,0.442352 0.53713,0.241375 0.53712,-0.625322 0.53712,0.02766 0.53713,0.88569 0.53712,-0.45867 0.53713,0.230876 0.53712,-0.379435 0.53712,-0.196626 0.53713,0.128682 0.53712,0.911762 0.53713,-1.342026 0.53712,0.342594 0.53712,-0.06053 0.53713,-0.07965 0.53712,0.323759 0.53713,-0.394236 0.53712,-0.149353 0.53712,0.25542 0.53713,0.276823 0.53712,-0.139878 0.53713,0.193927 0.53712,0.04103 0.53712,-0.223648 0.53713,-0.113985 0.53712,-0.05312 0.53713,-0.199471 0.53712,0.263795 0.53712,-0.169899 0.53713,0.237072 0.53712,-0.169134 0.53713,0.580014 0.53712,-0.256822 0.53712,-0.03781 0.53713,-0.204399 0.53712,0.157231 0.53713,0.577894 0.53712,-0.11361 0.53712,-0.456135 0.53713,0.193858 0.53712,-0.06797 0.53713,0.208488 0.53712,0.313568 0.53712,0.134562 0.53713,-1.120365 0.53712,0.524408 0.53713,0.359983 0.53712,-0.513751 0.53712,0.980914 0.53713,-0.833549 0.53712,-0.02349 0.53713,1.309174 0.53712,-0.708037 0.53712,0.321908 0.53713,-0.437031 0.53712,-0.686653 0.53713,1.813225 0.53712,-0.858867 0.53712,0.831057 0.53713,0.167142 0.53712,-1.789067 0.53713,0.922643 0.53712,-0.90033 0.53712,-0.277652 0.53713,2.801342 0.53712,-0.640077 0.53713,0.315471 0.53712,0.390091 0.53712,0.729213 0.53713,-1.150834 0.53712,0.305581 0.53713,2.175104 0.53712,-0.813654 0.53712,5.73986 0.53713,-2.106002 0.53712,-2.158019 0.53713,-1.054713 0.53712,-1.913653 0.53712,1.77939 0.53713,0.572506 0.53712,2.776053 0.53713,2.37661 0.53712,-0.09897 0.53712,-3.570431 0.53713,-1.39193 0.53712,4.227503 0.53713,4.147669 0.53712,6.261408 0.53712,-1.052481 0.53713,-2.441638 0.53712,-7.259897 0.53713,-3.970153 0.53712,6.433041 0.53712,5.285956 0.53713,-0.568845 0.53712,-6.070697 0.53713,1.664307 0.53712,-3.171131 0.53712,-1.195355 0.53713,13.185052 0.53712,11.511036 0.53713,-6.6162 0.53712,1.99532 0.53712,-4.082922 0.53713,-10.735386 0.53712,-3.90735 0.53713,18.500733 0.53712,3.387859 0.53712,11.817452 0.53713,-10.151157 0.53712,-6.834991 0.53713,-5.416974 0.53712,2.36784 0.53712,10.694847 0.53713,8.184121 0.53712,1.165837 0.53713,-8.033824 0.53712,-1.470595 0.53712,-4.90255 0.53713,8.12674 0.53712,8.815831 0.53713,-4.349327 0.53712,9.797065 0.53712,-8.655577 0.53713,-4.667556 0.53712,-6.405644 0.53713,-9.964444 0.53712,17.398517 0.53712,4.460569 0.53713,10.873269 0.53712,-8.846468 0.53713,14.125757 0.53712,-17.261008 0.53712,4.244538 0.53713,1.228488 0.53712,-4.880477 0.53713,2.69684 0.53712,-3.550157 0.53712,5.641442 0.53713,-5.535729 0.53712,5.314395 0.53713,4.982405 0.53712,4.564139 0.53712,-2.136052 0.53713,-17.443113 0.53712,6.950404 0.53713,5.916226 0.53712,-10.051373 0.53712,22.82156 0.53713,-7.016435 0.53712,-2.338645 0.53713,1.199563 0.53712,-6.498073 0.53712,-2.141782 0.53713,-0.36864 0.53712,0.0784 0.53713,-2.375472 0.53712,1.790241 0.53712,-5.422921 0.53713,1.947878 0.53712,7.059224 0.53713,1.830213 0.53712,-19.171934 v 79.755276 0 l -0.53712,-2.90533 -0.53713,2.20471 -0.53712,-2.49664 -0.53713,1.39466 -0.53712,-9.94175 -0.53712,5.84413 -0.53713,5.82087 -0.53712,-10.34264 -0.53713,-3.80916 -0.53712,11.59726 -0.53712,5.01439 -0.53713,-3.86891 -0.53712,7.26928 -0.53713,9.00348 -0.53712,-24.36474 -0.53712,-0.24867 -0.53713,9.02684 -0.53712,2.22052 -0.53713,1.49781 -0.53712,-1.50061 -0.53712,-2.53416 -0.53713,-10.078 -0.53712,-5.6213 -0.53713,14.91802 -0.53712,9.53973 -0.53712,-7.54661 -0.53713,-1.32115 -0.53712,-2.24345 -0.53713,-7.98048 -0.53712,-4.68438 -0.53712,19.32008 -0.53713,-8.931 -0.53712,3.47786 -0.53713,5.82585 -0.53712,-5.54894 -0.53712,-11.08217 -0.53713,-7.82408 -0.53712,23.21733 -0.53713,-6.08478 -0.53712,-0.28922 -0.53712,1.46367 -0.53713,-2.75436 -0.53712,-6.88407 -0.53713,-7.46599 -0.53712,13.93747 -0.53712,-13.18052 -0.53713,5.53568 -0.53712,2.12464 -0.53713,-3.67531 -0.53712,-6.73325 -0.53712,-1.26572 -0.53713,9.89769 -0.53712,-1.20605 -0.53713,3.59981 -0.53712,-0.4289 -0.53712,-7.956 -0.53713,-7.080824 -0.53712,-3.978514 -0.53713,2.532652 -0.53712,3.284056 -0.53712,-7.557989 -0.53713,0.265527 -0.53712,0.371173 -0.53713,4.237367 -0.53712,-12.215375 -0.53712,-4.12773 -0.53713,11.51378 -0.53712,6.774217 -0.53713,2.04971 -0.53712,-6.035598 -0.53712,-11.909 -0.53713,-0.319787 -0.53712,8.390128 -0.53713,-2.374875 -0.53712,-5.68351 -0.53712,2.383093 -0.53713,8.239818 -0.53712,-17.030648 -0.53713,2.799907 -0.53712,-2.402179 -0.53712,-2.872749 -0.53713,3.06832 -0.53712,0.594959 -0.53713,-2.296537 -0.53712,-11.851799 -0.53712,-1.012585 -0.53713,5.189971 -0.53712,1.851334 -0.53713,-3.299185 -0.53712,16.592151 -0.53712,-19.035125 -0.53713,-9.653199 -0.53712,0.452105 -0.53713,3.797452 -0.53712,-3.22018 -0.53712,-2.275671 -0.53713,9.584563 -0.53712,2.765155 -0.53713,-27.157679 -0.53712,5.031951 -0.53712,7.268351 -0.53713,-1.388433 -0.53712,13.163162 -0.53713,-2.284975 -0.53712,-6.637472 -0.53712,-13.05325 -0.53713,12.764296 -0.53712,2.079985 -0.53713,-8.024013 -0.53712,1.908666 -0.53712,6.5912 -0.53713,-5.276402 -0.53712,-12.936939 -0.53713,-5.955372 -0.53712,8.865609 -0.53712,-0.683832 -0.53713,-1.851363 -0.53712,-0.163735 -0.53713,-0.707573 -0.53712,-2.410728 -0.53712,1.824446 -0.53713,3.168507 -0.53712,-1.2807 -0.53713,5.474887 -0.53712,-13.186925 -0.53712,7.334783 -0.53713,-5.095002 -0.53712,-4.83238 -0.53713,1.038462 -0.53712,-1.562698 -0.53712,3.647624 -0.53713,-0.309823 -0.53712,-2.650765 -0.53713,1.551397 -0.53712,-4.041961 -0.53712,0.626551 -0.53713,3.420192 -0.53712,-4.846799 -0.53713,3.699963 -0.53712,-1.239695 -0.53712,0.211829 -0.53713,-1.127535 -0.53712,-2.206432 -0.53713,3.484399 -0.53712,0.471794 -0.53712,-0.782051 -0.53713,1.355201 -0.53712,0.599845 -0.53713,-1.262979 -0.53712,-1.147254 -0.53712,-2.254413 -0.53713,7.702785 -0.53712,-3.467511 -0.53713,0.07019 -0.53712,6.609945 -0.53712,-7.267619 -0.53713,4.260454 -0.53712,-6.341519 -0.53713,-0.594712 -0.53712,5.429297 -0.53712,2.157869 -0.53713,-4.807097 -0.53712,3.901983 -0.53713,-6.335881 -0.53712,9.101887 -0.53712,-4.263869 -0.53713,0.831252 -0.53712,-1.811027 -0.53713,3.757074 -0.53712,-4.927914 -0.53712,0.397366 -0.53713,0.115975 -0.53712,0.113203 -0.53713,2.508027 -0.53712,0.281288 -0.53712,0.133155 -0.53713,0.166582 -0.53712,2.968936 -0.53713,-7.047976 -0.53712,4.612827 -0.53712,-2.021777 -0.53713,0.378788 -0.53712,-3.198646 -0.53713,1.132905 -0.53712,6.245355 -0.53712,-2.685417 -0.53713,3.332739 -0.53712,3.131753 -0.53713,-1.50471 -0.53712,-3.700994 -0.53712,-3.673062 -0.53713,3.590955 -0.53712,11.481186 -0.53713,-7.609487 -0.53712,4.109215 -0.53712,-3.313717 -0.53713,-4.443265 -0.53712,2.514685 -0.53713,2.191278 -0.53712,-2.775442 -0.53712,7.265387 -0.53713,3.112333 -0.53712,-2.566112 -0.53713,-11.379369 -0.53712,5.830582 -0.53712,8.920844 -0.53713,4.14968 -0.53712,-6.110302 -0.53713,6.617782 -0.53712,-4.541988 -0.53712,-10.164997 -0.53713,6.842227 -0.53712,11.929814 -0.53713,-2.787491 -0.53712,8.831994 -0.53712,4.249795 -0.53713,-9.179983 -0.53712,-5.22244 -0.53713,9.281037 -0.53712,-7.828502 -0.53712,8.362985 -0.53713,-4.616992 -0.53712,2.528603 -0.53713,-22.852308 -0.53712,1.994281 -0.53712,16.568565 -0.53713,-0.36465 -0.53712,-0.784236 -0.53713,9.440477 -0.53712,15.145582 -0.537124,-8.822114 -0.537124,-20.802856 -0.537124,6.030425 -0.537124,11.275945 -0.537124,-2.404907 -0.537124,3.9252 -0.537124,9.524113 -0.537124,-11.948162 -0.537124,5.280009 -0.537124,0.99425 -0.537124,0.222218 -0.537124,3.327151 -0.537124,2.603956 -0.537124,11.263536 -0.537124,-1.623162 -0.537124,-12.69228 -0.537124,2.610925 -0.537124,4.698454 -0.537124,3.2718 -0.537124,6.299023 -0.537124,-8.015339 -0.537124,5.428795 -0.537124,-9.411554 -0.537124,-3.024663 -0.537124,14.090122 -0.537124,5.712335 -0.537124,-7.707316 -0.537124,3.695262 -0.537124,-9.466077 -0.537124,7.27689 -0.537124,0.733636 -0.537124,-5.949974 -0.537124,0.750348 -0.537124,9.071736 -0.537124,3.637444 -0.537124,0.117559 -0.537124,-4.821194 -0.537124,-0.57311 -0.537124,-2.853868 -0.537124,4.665634 -0.537124,1.007627 -0.537124,2.151603 -0.537124,-7.257425 -0.537124,9.807064 -0.537124,-8.637074 -0.537124,15.198064 -0.537124,-4.94966 -0.537124,1.69518 -0.537124,3.61409 -0.537124,-2.0589 -0.537124,-8.446578 -0.537124,-0.753427 -0.537124,7.511385 -0.537124,0.16485 -0.537124,6.53807 -0.537124,-3.04743 -0.537124,6.2425 -0.537124,-3.69856 -0.537124,-15.119363 -0.537124,5.181333 -0.537124,5.47292 -0.537124,-1.24068 -0.537124,1.7003 -0.537124,1.47176 -0.537124,-3.93748 -0.537124,-5.009622 -0.537124,20.100192 -0.537124,-11.93304 -0.537124,7.58699 -0.537124,1.29039 -0.537124,-4.42983 -0.537124,2.03116 -0.537124,-10.84132 -0.537124,15.12952 -0.537124,4.04169 -0.537124,-1.17105 -0.537124,1.88052 -0.537124,10.56539 -0.537124,-25.95766 -0.537124,-4.41424 -0.537124,24.6336 -0.537124,-5.06668 -0.537124,-0.59156 -0.537124,3.15255 -0.537124,12.10051 -0.537124,-15.09296 -0.537124,-8.70289 -0.537124,8.91428 -0.537124,-3.54277 -0.537124,6.66631 -0.537124,-3.5806 -0.537124,7.06787 -0.537124,-3.1028 -0.537124,-10.32606 -0.537124,5.00977 -0.537124,-1.73858 -0.537124,7.30181 -0.537124,-4.98944 -0.537124,7.17242 -0.537124,-14.71447 -0.537124,-3.51522 -0.537124,9.14369 -0.537124,-0.57099 -0.537124,9.0893 -0.537124,-4.82907 -0.537124,5.78394 -0.537124,-6.78413 -0.537124,-3.66479 -0.537124,7.18134 -0.537124,2.26045 -0.537124,-3.70125 -0.537124,4.22791 -0.537124,4.65266 -0.537124,-11.57663 -0.537124,1.69662 -0.537124,4.98372 -0.537124,-2.03184 -0.537124,-4.83821 -0.537124,1.0072 -0.537124,20.16834 -0.537124,-21.00788 -0.537124,-4.60862 -0.537124,9.56203 -0.537124,2.50837 -0.537124,-8.45226 -0.537124,3.97918 -0.537124,-2.66298 -0.537124,-4.76789 -0.537124,-2.34722 -0.537124,5.94244 -0.537124,-2.13872 -0.537124,7.31996 -0.537124,0.68394 -0.537124,-6.9803 z"
           style="fill:#c04848;fill-opacity:0.12;fill-rule:nonzero;stroke:#c04848;stroke-width:1;stroke-linecap:butt;stroke-linejoin:round;stroke-miterlimit:10;stroke-dasharray:none;stroke-opacity:0.12"
           id="path24" />
      </g>
    </g>
    <g
       id="g26">
      <g
         id="g28"
         clip-path="url(#clipPath32)">
        <path
           d="M 28.406864,108.62098 V 81.624424 l 0.537124,4.06737 0.537124,-1.425817 0.537124,-3.058939 0.537124,-2.688399 0.537124,-7.647079 0.537124,10.568435 0.537124,0.595672 0.537124,0.524854 0.537124,-4.316548 0.537124,7.461569 0.537124,4.145293 0.537124,-12.259488 0.537124,1.38251 0.537124,15.130978 0.537124,-1.819657 0.537124,-4.316193 0.537124,5.538448 0.537124,1.051996 0.537124,-15.477626 0.537124,1.686576 0.537124,10.172211 0.537124,1.965722 0.537124,6.781423 0.537124,-4.881895 0.537124,0.146509 0.537124,-15.302494 0.537124,4.981827 0.537124,9.647062 0.537124,-0.682315 0.537124,-3.340148 0.537124,-5.769773 0.537124,-3.792665 0.537124,-9.279512 0.537124,6.896332 0.537124,5.12177 0.537124,7.584361 0.537124,0.263128 0.537124,-8.09336 0.537124,-4.556743 0.537124,-4.421527 0.537124,-2.78811 0.537124,12.092206 0.537124,6.191851 0.537124,-1.59858 0.537124,-2.776894 0.537124,0.785045 0.537124,-6.383186 0.537124,-2.197836 0.537124,13.850189 0.537124,-7.255276 0.537124,-0.0053 0.537124,-13.703025 0.537124,6.661995 0.537124,-7.560368 0.537124,3.627566 0.537124,2.366047 0.537124,9.578367 0.537124,-8.261285 0.537124,-8.457836 0.537124,1.263708 0.537124,-2.932067 0.537124,4.975751 0.537124,2.60062 0.537124,3.311813 0.537124,-1.604436 0.537124,-5.748253 0.537124,-3.434932 0.537124,-6.096908 0.537124,-5.204488 0.537124,9.682595 0.537124,2.31889 0.537124,1.840221 0.537124,-9.677607 0.537124,-1.006132 0.537124,-12.040348 0.537124,0.01108 0.537124,11.295124 0.537124,10.531158 0.537124,-3.43823 0.537124,-1.929094 0.537124,-2.42747 0.537124,-8.000204 0.537124,-2.682283 0.537124,8.474199 0.537124,4.851048 0.537124,-8.255027 0.537124,-4.91063 0.537124,-6.148293 0.537124,-4.788993 0.537124,-5.751721 0.537124,-1.030561 0.537124,12.066249 0.537124,10.140538 0.537124,-5.583542 0.537124,1.40386 0.537124,-14.798896 0.537124,-1.79534 0.537124,21.66698 0.537124,-5.106199 0.537124,-2.068572 0.537124,-1.989816 0.537124,2.244004 0.537124,-11.661541 0.537124,-2.079734 0.537124,10.547469 0.537124,4.969923 0.537124,-1.977604 0.537124,-6.47873 0.537124,0.700451 0.537124,-10.101925 0.537124,-6.5117 0.537124,7.609577 0.537124,1.403859 0.537124,-0.652191 0.537124,-3.123786 0.537124,-0.997274 0.537124,-2.039608 0.537124,-3.53695 0.537124,0.447088 0.537124,4.723495 0.537124,-5.736478 0.537124,0.864755 0.537124,0.958957 0.537124,-1.437664 0.537124,-3.437547 0.537124,6.832597 0.537124,-1.097024 0.537124,-1.793772 0.537124,-2.968394 0.537124,-1.506318 0.537124,0.144885 0.537124,0.118894 0.537124,4.152834 0.537124,1.822495 0.53712,-0.07107 0.53713,-3.487935 0.53712,0.593292 0.53713,-1.388758 0.53712,-2.064111 0.53712,1.147986 0.53713,-1.895271 0.53712,4.264919 0.53713,-0.417348 0.53712,0.797546 0.53712,-5.323789 0.53713,1.928572 0.53712,0.119648 0.53713,1.750524 0.53712,-1.27057 0.53712,0.422708 0.53713,-1.554235 0.53712,0.555688 0.53713,0.595366 0.53712,-2.634765 0.53712,1.119492 0.53713,-0.496992 0.53712,-0.383016 0.53713,1.382173 0.53712,-2.885402 0.53712,1.32662 0.53713,1.334272 0.53712,-0.606653 0.53713,-0.673314 0.53712,-0.136763 0.53712,0.818513 0.53713,-0.216714 0.53712,-0.120976 0.53713,0.204453 0.53712,0.314016 0.53712,0.600309 0.53713,-1.970906 0.53712,-0.968205 0.53713,0.806274 0.53712,-0.562023 0.53712,0.581425 0.53713,0.222076 0.53712,-0.439629 0.53713,0.01966 0.53712,-0.589562 0.53712,-0.566927 0.53713,-0.217768 0.53712,0.504196 0.53713,-0.495328 0.53712,-0.215134 0.53712,-0.108579 0.53713,-0.113887 0.53712,0.02327 0.53713,-0.222284 0.53712,0.259908 0.53712,1.374911 0.53713,-0.08735 0.53712,-0.941385 0.53713,-0.532307 0.53712,0.07265 0.53712,0.102284 0.53713,0.205165 0.53712,0.883463 0.53713,-0.196581 0.53712,-0.388397 0.53712,-0.680764 0.53713,0.554319 0.53712,-0.331181 0.53713,-0.450275 0.53712,0.885092 0.53712,-0.514352 0.53713,0.31827 0.53712,-0.147438 0.53713,-0.04396 0.53712,0.257762 0.53712,-0.07711 0.53713,0.086 0.53712,-0.256426 0.53713,-1.283421 0.53712,0.635103 0.53712,0.418939 0.53713,-0.313997 0.53712,0.731699 0.53713,-0.437905 0.53712,-0.741537 0.53712,0.418455 0.53713,0.183856 0.53712,-0.202435 0.53713,0.155073 0.53712,0.455843 0.53712,1.247636 0.53713,-1.159636 0.53712,-0.43179 0.53713,-0.04393 0.53712,-0.314397 0.53712,0.0762 0.53713,0.497192 0.53712,1.21434 0.53713,-1.047825 0.53712,-0.04832 0.53712,0.04049 0.53713,-0.511002 0.53712,0.239529 0.53713,1.10169 0.53712,0.606782 0.53712,1.268165 0.53713,-2.036257 0.53712,-1.112331 0.53713,1.443983 0.53712,0.389541 0.53712,1.35518 0.53713,1.028115 0.53712,-0.828731 0.53713,-0.865955 0.53712,-0.873773 0.53712,1.07164 0.53713,1.559715 0.53712,-1.165324 0.53713,1.15345 0.53712,-0.268857 0.53712,-0.613304 0.53713,0.724567 0.53712,-1.486345 0.53713,4.076385 0.53712,-2.044844 0.53712,1.643357 0.53713,-0.320753 0.53712,0.260926 0.53713,-2.921729 0.53712,-0.186306 0.53712,1.531249 0.53713,1.408527 0.53712,0.791944 0.53713,1.502031 0.53712,0.02768 0.53712,-1.029211 0.53713,-0.02723 0.53712,-0.335372 0.53713,2.333778 0.53712,4.447979 0.53712,2.493687 0.53713,-4.688683 0.53712,-1.203445 0.53713,-0.445019 0.53712,-2.854817 0.53712,4.662396 0.53713,11.880779 0.53712,0.862004 0.53713,-1.327023 0.53712,-3.150976 0.53712,-6.515844 0.53713,-2.572776 0.53712,18.02871 0.53713,3.00737 0.53712,2.891143 0.53712,-8.291811 0.53713,-1.020936 0.53712,-8.662793 0.53713,1.985522 0.53712,15.40036 0.53712,7.386932 0.53713,-4.773525 0.53712,-3.652672 0.53713,-6.530935 0.53712,-12.046929 0.53712,3.711706 0.53713,16.733609 0.53712,10.188379 0.53713,-4.518517 0.53712,-2.854646 0.53712,-2.767394 0.53713,-3.557172 0.53712,-5.833526 0.53713,18.345151 0.53712,7.178603 0.53712,-2.088152 0.53713,-2.435018 0.53712,1.151439 0.53713,-5.839125 0.53712,4.488862 0.53712,4.666036 0.53713,4.484944 0.53712,0.466917 0.53713,-5.400593 0.53712,-1.597629 0.53712,1.625286 0.53713,-1.260379 0.53712,4.528594 0.53713,0.05944 0.53712,5.83929 0.53712,-3.950483 0.53713,2.314881 0.53712,-9.957897 0.53713,0.494317 0.53712,9.395526 0.53712,3.752251 0.53713,-1.019489 0.53712,3.527868 0.53713,2.50572 0.53712,-8.746111 0.53712,2.88098 0.53713,7.96461 0.53712,3.421177 0.53713,-7.041909 0.53712,0.886922 0.53712,-2.160206 0.53713,-11.940894 0.53712,8.340284 0.53713,6.565436 0.53712,10.326416 0.53712,-2.018965 0.53713,-4.915485 0.53712,-0.324968 0.53713,-8.395747 0.53712,7.710388 0.53712,3.944784 0.53713,-2.11428 0.53712,-4.325792 0.53713,5.964501 0.53712,-0.433835 0.53712,-10.85688 0.53713,1.087404 0.53712,4.038012 0.53713,-4.852134 0.53712,1.509372 0.53712,0.569492 0.53713,0.479244 0.53712,2.683677 0.53713,-1.262753 0.53712,3.092843 v 17.689718 0 l -0.53712,2.81561 -0.53713,-1.79921 -0.53712,-3.63624 -0.53713,3.69182 -0.53712,-4.444595 -0.53712,3.216765 -0.53713,11.48911 -0.53712,-13.03196 -0.53713,-2.601035 -0.53712,10.927685 -0.53712,7.65195 -0.53713,-1.58103 -0.53712,-1.30654 -0.53713,-0.8263 -0.53712,-10.429 -0.53712,-1.92589 -0.53713,15.42085 -0.53712,-4.45154 -0.53713,0.54389 -0.53712,0.52439 -0.53712,-0.33956 -0.53713,-18.38061 -0.53712,-1.533658 -0.53713,19.076708 -0.53712,5.66182 -0.53712,-9.19046 -0.53713,2.26486 -0.53712,0.65698 -0.53713,-12.701431 -0.53712,-0.284703 -0.53712,13.040784 -0.53713,-6.12714 -0.53712,8.78103 -0.53713,-0.0947 -0.53712,-8.13699 -0.53712,-7.573742 -0.53713,-4.10831 -0.53712,17.236482 -0.53713,-4.37816 -0.53712,-5.28096 -0.53712,0.57163 -0.53713,-2.332388 -0.53712,-9.963621 -0.53713,-5.937629 -0.53712,15.758632 -0.53712,-7.406343 -0.53713,-3.644919 -0.53712,-3.621259 -0.53713,2.773221 -0.53712,-13.982551 -0.53712,7.210509 -0.53713,6.326262 -0.53712,4.143023 -0.53713,-2.509722 -0.53712,-2.941828 -0.53712,-6.610451 -0.53713,-11.560361 -0.53712,1.839858 -0.53713,7.51138 -0.53712,0.195745 -0.53712,2.076564 -0.53713,-2.03337 -0.53712,-5.005741 -0.53713,-7.451886 -0.53712,-3.147483 -0.53712,4.552916 -0.53713,0.405474 -0.53712,7.784338 -0.53713,1.651193 -0.53712,-5.086473 -0.53712,-15.273607 -0.53713,9.793684 -0.53712,-1.628488 -0.53713,7.458 -0.53712,-2.907373 -0.53712,4.844744 -0.53713,-9.894572 -0.53712,-10.370644 -0.53713,0.524926 -0.53712,4.637291 -0.53712,0.454674 -0.53713,0.238122 -0.53712,4.068586 -0.53713,-5.091529 -0.53712,-14.280672 -0.53712,-1.236176 -0.53713,3.926412 -0.53712,-4.54272 -0.53713,8.661078 -0.53712,5.322054 -0.53712,-9.229921 -0.53713,-10.957182 -0.53712,-1.604893 -0.53713,6.042101 -0.53712,1.893189 -0.53712,2.996125 -0.53713,-2.051724 -0.53712,-3.78911 -0.53713,-9.42448 -0.53712,3.015519 -0.53712,4.804196 -0.53713,-1.987426 -0.53712,4.962803 -0.53713,3.569811 -0.53712,-4.02297 -0.53712,-7.4905 -0.53713,-4.455627 -0.53712,3.225511 -0.53713,-0.857106 -0.53712,0.426344 -0.53712,-3.328367 -0.53713,3.264463 -0.53712,-4.663421 -0.53713,-1.179041 -0.53712,5.053392 -0.53712,-4.147349 -0.53713,3.708996 -0.53712,-3.355381 -0.53713,1.416234 -0.53712,-0.218933 -0.53712,-4.550181 -0.53713,0.562255 -0.53712,2.567935 -0.53713,2.578521 -0.53712,-4.318528 -0.53712,-1.360464 -0.53713,-0.06759 -0.53712,2.108824 -0.53713,-4.042294 -0.53712,-0.552172 -0.53712,0.551465 -0.53713,0.231854 -0.53712,-0.245824 -0.53713,-1.255349 -0.53712,0.645146 -0.53712,1.571914 -0.53713,-1.63886 -0.53712,3.371252 -0.53713,-0.202486 -0.53712,-2.046645 -0.53712,-0.571228 -0.53713,0.298593 -0.53712,0.119506 -0.53713,1.727328 -0.53712,-1.810943 -0.53712,-0.326611 -0.53713,0.319625 -0.53712,-0.178294 -0.53713,0.619216 -0.53712,-1.195352 -0.53712,0.01406 -0.53713,0.564714 -0.53712,0.822893 -0.53713,-1.622686 -0.53712,0.518097 -0.53712,2.118393 -0.53713,-0.597913 -0.53712,-1.497634 -0.53713,0.221428 -0.53712,1.726222 -0.53712,-1.936313 -0.53713,0.672922 -0.53712,0.560893 -0.53713,-2.246586 -0.53712,2.284885 -0.53712,-0.342458 -0.53713,3.092864 -0.53712,-2.083117 -0.53713,-0.798233 -0.53712,1.128527 -0.53712,-1.116593 -0.53713,2.947732 -0.53712,-1.368944 -0.53713,1.318422 -0.53712,-1.38075 -0.53712,-1.516987 -0.53713,-0.345456 -0.53712,0.739441 -0.53713,1.675204 -0.53712,-0.405833 -0.53712,0.625906 -0.53713,0.202337 -0.53712,-1.116239 -0.53713,-0.568123 -0.53712,1.98431 -0.53712,-0.624346 -0.53713,3.064007 -0.53712,-1.09818 -0.53713,1.623372 -0.53712,-2.040349 -0.53712,-0.02582 -0.53713,2.638438 -0.53712,-2.221043 -0.53713,2.932586 -0.53712,-1.563597 -0.53712,0.733843 -0.53713,0.07496 -0.53712,-2.09109 -0.53713,2.22472 -0.53712,-0.523138 -0.53712,1.799675 -0.53713,0.44856 -0.53712,-1.466087 -0.53713,-1.41069 -0.53712,0.310139 -0.53712,2.159886 -0.53713,4.448082 -0.53712,-1.118902 -0.53713,0.903338 -0.53712,-5.085076 -0.53712,-0.299432 -0.53713,2.243202 -0.53712,3.841889 -0.53713,-4.988925 -0.53712,13.666307 -0.53712,-2.000423 -0.53713,-5.697751 -0.53712,-6.893931 -0.53713,0.948466 -0.53712,6.388832 -0.53712,3.091451 -0.53713,1.128077 -0.53712,-1.894099 -0.53713,-9.881317 -0.53712,2.036193 -0.53712,0.06352 -0.53713,9.337405 -0.53712,6.09355 -0.53713,2.052725 -0.53712,4.362879 -0.537124,-7.846024 -0.537124,-9.740711 -0.537124,-3.695891 -0.537124,9.922531 -0.537124,-0.514587 -0.537124,5.715767 -0.537124,4.692196 -0.537124,2.94157 -0.537124,-8.48895 -0.537124,-1.785114 -0.537124,8.39235 -0.537124,-5.246705 -0.537124,-5.488226 -0.537124,18.423643 -0.537124,-2.525821 -0.537124,-12.125749 -0.537124,2.632778 -0.537124,10.316214 -0.537124,0.385118 -0.537124,1.975936 -0.537124,3.983713 -0.537124,-5.904597 -0.537124,-8.417929 -0.537124,9.074907 -0.537124,10.315621 -0.537124,3.753821 -0.537124,0.772174 -0.537124,-2.887888 -0.537124,0.03227 -0.537124,0.286915 -0.537124,-1.859926 -0.537124,0.139559 -0.537124,2.460289 -0.537124,7.130124 L 81.58214,82.178761 81.045016,80.714356 80.507892,73.751573 79.970768,70.469219 79.433644,74.43178 78.89652,82.288218 78.359396,78.164794 77.822272,75.127206 77.285148,65.77306 76.748024,75.882968 76.2109,76.823819 75.673776,78.71166 75.136652,82.872882 74.599528,86.089315 74.062404,85.52273 73.52528,80.975908 72.988156,77.97762 72.451032,76.89808 71.913908,87.510967 71.376784,84.219879 70.83966,88.642766 70.302536,92.072117 69.765412,83.912707 69.228288,81.16573 68.691164,80.80449 68.15404,81.817875 67.616916,90.184714 67.079792,89.194783 66.542668,94.363238 66.005544,90.711727 65.46842,86.3774 64.931296,82.477803 64.394172,99.642305 63.857048,97.23946 63.319924,106.56049 62.7828,96.870868 62.245676,107.13528 61.708552,93.439589 61.171428,87.151348 60.634304,103.31877 60.09718,96.786326 l -0.537124,2.396691 -0.537124,6.385253 -0.537124,1.96578 -0.537124,-13.020967 -0.537124,-1.96042 -0.537124,16.465337 -0.537124,-0.0578 -0.537124,-1.32721 -0.537124,6.63504 -0.537124,0.22362 -0.537124,-12.42025 -0.537124,-4.061487 -0.537124,13.065427 -0.537124,-2.07367 -0.537124,6.40994 -0.537124,-3.09858 -0.537124,-0.73481 -0.537124,-14.006501 -0.537124,-2.907302 -0.537124,13.748093 -0.537124,2.23728 -0.537124,-0.22329 -0.537124,0.78051 -0.537124,-5.69737 -0.537124,-8.063202 -0.537124,-0.771448 -0.537124,11.64556 -0.537124,2.5235 -0.537124,3.02414 -0.537124,-2.34752 -0.537124,5.8939 -0.537124,-15.88101 -0.537124,0.1335 -0.537124,14.47033 -0.537124,0.37177 -0.537124,0.68647 -0.537124,-4.68063 -0.537124,3.02261 -0.537124,-8.6719 -0.537124,-4.34878 -0.537124,11.15548 -0.537124,-1.61144 -0.537124,2.54655 -0.537124,-0.61651 -0.537124,3.70464 -0.537124,-13.56456 -0.537124,-1.7897 -0.537124,10.07598 -0.537124,-1.03774 -0.537124,2.14496 -0.537124,-4.35485 -0.537124,2.61781 -0.537124,-11.891076 -0.537124,-0.946642 -0.537124,9.872058 -0.537124,-1.95068 -0.537124,2.87245 -0.537124,-0.62184 -0.537124,-0.50084 z"
           style="fill:#c04848;fill-opacity:0.23;fill-rule:nonzero;stroke:#c04848;stroke-width:1;stroke-linecap:butt;stroke-linejoin:round;stroke-miterlimit:10;stroke-dasharray:none;stroke-opacity:0.23"
           id="path34" />
      </g>
    </g>
    <g
       id="g36">
      <path
         d="m 28.406864,14.129119 v 3"
         style="fill:#000000;fill-opacity:1;fill-rule:nonzero;stroke:#000000;stroke-width:0.5;stroke-linecap:butt;stroke-linejoin:round;stroke-miterlimit:10;stroke-dasharray:none;stroke-opacity:1"
         id="path38" />
      <path
         d="m 28.406864,163.61817 v -3"
         style="fill:#000000;fill-opacity:1;fill-rule:nonzero;stroke:#000000;stroke-width:0.5;stroke-linecap:butt;stroke-linejoin:round;stroke-miterlimit:10;stroke-dasharray:none;stroke-opacity:1"
         id="path40" />
      <path
         d="m 45.057708,14.129119 v 3"
         style="fill:#000000;fill-opacity:1;fill-rule:nonzero;stroke:#000000;stroke-width:0.5;stroke-linecap:butt;stroke-linejoin:round;stroke-miterlimit:10;stroke-dasharray:none;stroke-opacity:1"
         id="path42" />
      <path
         d="m 45.057708,163.61817 v -3"
         style="fill:#000000;fill-opacity:1;fill-rule:nonzero;stroke:#000000;stroke-width:0.5;stroke-linecap:butt;stroke-linejoin:round;stroke-miterlimit:10;stroke-dasharray:none;stroke-opacity:1"
         id="path44" />
      <path
         d="m 60.634304,14.129119 v 3"
         style="fill:#000000;fill-opacity:1;fill-rule:nonzero;stroke:#000000;stroke-width:0.5;stroke-linecap:butt;stroke-linejoin:round;stroke-miterlimit:10;stroke-dasharray:none;stroke-opacity:1"
         id="path46" />
      <path
         d="m 60.634304,163.61817 v -3"
         style="fill:#000000;fill-opacity:1;fill-rule:nonzero;stroke:#000000;stroke-width:0.5;stroke-linecap:butt;stroke-linejoin:round;stroke-miterlimit:10;stroke-dasharray:none;stroke-opacity:1"
         id="path48" />
      <path
         d="m 77.285148,14.129119 v 3"
         style="fill:#000000;fill-opacity:1;fill-rule:nonzero;stroke:#000000;stroke-width:0.5;stroke-linecap:butt;stroke-linejoin:round;stroke-miterlimit:10;stroke-dasharray:none;stroke-opacity:1"
         id="path50" />
      <path
         d="m 77.285148,163.61817 v -3"
         style="fill:#000000;fill-opacity:1;fill-rule:nonzero;stroke:#000000;stroke-width:0.5;stroke-linecap:butt;stroke-linejoin:round;stroke-miterlimit:10;stroke-dasharray:none;stroke-opacity:1"
         id="path52" />
      <path
         d="m 93.398868,14.129119 v 3"
         style="fill:#000000;fill-opacity:1;fill-rule:nonzero;stroke:#000000;stroke-width:0.5;stroke-linecap:butt;stroke-linejoin:round;stroke-miterlimit:10;stroke-dasharray:none;stroke-opacity:1"
         id="path54" />
      <path
         d="m 93.398868,163.61817 v -3"
         style="fill:#000000;fill-opacity:1;fill-rule:nonzero;stroke:#000000;stroke-width:0.5;stroke-linecap:butt;stroke-linejoin:round;stroke-miterlimit:10;stroke-dasharray:none;stroke-opacity:1"
         id="path56" />
      <path
         d="m 110.04971,14.129119 v 3"
         style="fill:#000000;fill-opacity:1;fill-rule:nonzero;stroke:#000000;stroke-width:0.5;stroke-linecap:butt;stroke-linejoin:round;stroke-miterlimit:10;stroke-dasharray:none;stroke-opacity:1"
         id="path58" />
      <path
         d="m 110.04971,163.61817 v -3"
         style="fill:#000000;fill-opacity:1;fill-rule:nonzero;stroke:#000000;stroke-width:0.5;stroke-linecap:butt;stroke-linejoin:round;stroke-miterlimit:10;stroke-dasharray:none;stroke-opacity:1"
         id="path60" />
      <path
         d="m 126.16343,14.129119 v 3"
         style="fill:#000000;fill-opacity:1;fill-rule:nonzero;stroke:#000000;stroke-width:0.5;stroke-linecap:butt;stroke-linejoin:round;stroke-miterlimit:10;stroke-dasharray:none;stroke-opacity:1"
         id="path62" />
      <path
         d="m 126.16343,163.61817 v -3"
         style="fill:#000000;fill-opacity:1;fill-rule:nonzero;stroke:#000000;stroke-width:0.5;stroke-linecap:butt;stroke-linejoin:round;stroke-miterlimit:10;stroke-dasharray:none;stroke-opacity:1"
         id="path64" />
      <path
         d="m 142.81428,14.129119 v 3"
         style="fill:#000000;fill-opacity:1;fill-rule:nonzero;stroke:#000000;stroke-width:0.5;stroke-linecap:butt;stroke-linejoin:round;stroke-miterlimit:10;stroke-dasharray:none;stroke-opacity:1"
         id="path66" />
      <path
         d="m 142.81428,163.61817 v -3"
         style="fill:#000000;fill-opacity:1;fill-rule:nonzero;stroke:#000000;stroke-width:0.5;stroke-linecap:butt;stroke-linejoin:round;stroke-miterlimit:10;stroke-dasharray:none;stroke-opacity:1"
         id="path68" />
      <path
         d="m 159.46512,14.129119 v 3"
         style="fill:#000000;fill-opacity:1;fill-rule:nonzero;stroke:#000000;stroke-width:0.5;stroke-linecap:butt;stroke-linejoin:round;stroke-miterlimit:10;stroke-dasharray:none;stroke-opacity:1"
         id="path70" />
      <path
         d="m 159.46512,163.61817 v -3"
         style="fill:#000000;fill-opacity:1;fill-rule:nonzero;stroke:#000000;stroke-width:0.5;stroke-linecap:butt;stroke-linejoin:round;stroke-miterlimit:10;stroke-dasharray:none;stroke-opacity:1"
         id="path72" />
      <path
         d="m 175.57884,14.129119 v 3"
         style="fill:#000000;fill-opacity:1;fill-rule:nonzero;stroke:#000000;stroke-width:0.5;stroke-linecap:butt;stroke-linejoin:round;stroke-miterlimit:10;stroke-dasharray:none;stroke-opacity:1"
         id="path74" />
      <path
         d="m 175.57884,163.61817 v -3"
         style="fill:#000000;fill-opacity:1;fill-rule:nonzero;stroke:#000000;stroke-width:0.5;stroke-linecap:butt;stroke-linejoin:round;stroke-miterlimit:10;stroke-dasharray:none;stroke-opacity:1"
         id="path76" />
      <path
         d="m 192.22968,14.129119 v 3"
         style="fill:#000000;fill-opacity:1;fill-rule:nonzero;stroke:#000000;stroke-width:0.5;stroke-linecap:butt;stroke-linejoin:round;stroke-miterlimit:10;stroke-dasharray:none;stroke-opacity:1"
         id="path78" />
      <path
         d="m 192.22968,163.61817 v -3"
         style="fill:#000000;fill-opacity:1;fill-rule:nonzero;stroke:#000000;stroke-width:0.5;stroke-linecap:butt;stroke-linejoin:round;stroke-miterlimit:10;stroke-dasharray:none;stroke-opacity:1"
         id="path80" />
      <path
         d="m 208.3434,14.129119 v 3"
         style="fill:#000000;fill-opacity:1;fill-rule:nonzero;stroke:#000000;stroke-width:0.5;stroke-linecap:butt;stroke-linejoin:round;stroke-miterlimit:10;stroke-dasharray:none;stroke-opacity:1"
         id="path82" />
      <path
         d="m 208.3434,163.61817 v -3"
         style="fill:#000000;fill-opacity:1;fill-rule:nonzero;stroke:#000000;stroke-width:0.5;stroke-linecap:butt;stroke-linejoin:round;stroke-miterlimit:10;stroke-dasharray:none;stroke-opacity:1"
         id="path84" />
      <text
         xml:space="preserve"
         transform="matrix(1,0,0,-1,31.420267,5.3254631)"
         style="font-variant:normal;font-size:7.97011px;font-family:'Nimbus Roman No9 L';-inkscape-font-specification:NimbusRomNo9L-Regu;writing-mode:lr-tb;fill:#000000;fill-opacity:1;fill-rule:nonzero;stroke:none"
         id="text88"><tspan
           x="0 3.0924034 6.6231632"
           y="0"
           sodipodi:role="line"
           id="tspan86">Jan</tspan></text>
      <text
         xml:space="preserve"
         transform="matrix(1,0,0,-1,46.868468,5.3254631)"
         style="font-variant:normal;font-size:7.97011px;font-family:'Nimbus Roman No9 L';-inkscape-font-specification:NimbusRomNo9L-Regu;writing-mode:lr-tb;fill:#000000;fill-opacity:1;fill-rule:nonzero;stroke:none"
         id="text92"><tspan
           x="0 4.4234123 7.9541717"
           y="0"
           sodipodi:role="line"
           id="tspan90">Feb</tspan></text>
      <text
         xml:space="preserve"
         transform="matrix(1,0,0,-1,62.320698,5.3254631)"
         style="font-variant:normal;font-size:7.97011px;font-family:'Nimbus Roman No9 L';-inkscape-font-specification:NimbusRomNo9L-Regu;writing-mode:lr-tb;fill:#000000;fill-opacity:1;fill-rule:nonzero;stroke:none"
         id="text96"><tspan
           x="0 7.0774593 10.608219"
           y="0"
           sodipodi:role="line"
           id="tspan94">Mar</tspan></text>
      <text
         xml:space="preserve"
         transform="matrix(1,0,0,-1,79.145275,5.3254631)"
         style="font-variant:normal;font-size:7.97011px;font-family:'Nimbus Roman No9 L';-inkscape-font-specification:NimbusRomNo9L-Regu;writing-mode:lr-tb;fill:#000000;fill-opacity:1;fill-rule:nonzero;stroke:none"
         id="text100"><tspan
           x="0 5.7464509 9.7315073"
           y="0"
           sodipodi:role="line"
           id="tspan98">Apr</tspan></text>
      <text
         xml:space="preserve"
         transform="matrix(1,0,0,-1,94.419743,5.3254631)"
         style="font-variant:normal;font-size:7.97011px;font-family:'Nimbus Roman No9 L';-inkscape-font-specification:NimbusRomNo9L-Regu;writing-mode:lr-tb;fill:#000000;fill-opacity:1;fill-rule:nonzero;stroke:none"
         id="text104"><tspan
           x="0 7.0774593 10.608219"
           y="0"
           sodipodi:role="line"
           id="tspan102">May</tspan></text>
      <text
         xml:space="preserve"
         transform="matrix(1,0,0,-1,112.57137,5.3254631)"
         style="font-variant:normal;font-size:7.97011px;font-family:'Nimbus Roman No9 L';-inkscape-font-specification:NimbusRomNo9L-Regu;writing-mode:lr-tb;fill:#000000;fill-opacity:1;fill-rule:nonzero;stroke:none"
         id="text108"><tspan
           x="0 3.0924034 7.0774593"
           y="0"
           sodipodi:role="line"
           id="tspan106">Jun</tspan></text>
      <text
         xml:space="preserve"
         transform="matrix(1,0,0,-1,129.83837,5.3254631)"
         style="font-variant:normal;font-size:7.97011px;font-family:'Nimbus Roman No9 L';-inkscape-font-specification:NimbusRomNo9L-Regu;writing-mode:lr-tb;fill:#000000;fill-opacity:1;fill-rule:nonzero;stroke:none"
         id="text112"><tspan
           x="0 3.0924034 7.0774593"
           y="0"
           sodipodi:role="line"
           id="tspan110">Jul</tspan></text>
      <text
         xml:space="preserve"
         transform="matrix(1,0,0,-1,144.27745,5.3254631)"
         style="font-variant:normal;font-size:7.97011px;font-family:'Nimbus Roman No9 L';-inkscape-font-specification:NimbusRomNo9L-Regu;writing-mode:lr-tb;fill:#000000;fill-opacity:1;fill-rule:nonzero;stroke:none"
         id="text116"><tspan
           x="0 5.7464509 9.7315073"
           y="0"
           sodipodi:role="line"
           id="tspan114">Aug</tspan></text>
      <text
         xml:space="preserve"
         transform="matrix(1,0,0,-1,161.54444,5.3254631)"
         style="font-variant:normal;font-size:7.97011px;font-family:'Nimbus Roman No9 L';-inkscape-font-specification:NimbusRomNo9L-Regu;writing-mode:lr-tb;fill:#000000;fill-opacity:1;fill-rule:nonzero;stroke:none"
         id="text120"><tspan
           x="0 4.4234123 7.9541717"
           y="0"
           sodipodi:role="line"
           id="tspan118">Sep</tspan></text>
      <text
         xml:space="preserve"
         transform="matrix(1,0,0,-1,178.14992,5.3254631)"
         style="font-variant:normal;font-size:7.97011px;font-family:'Nimbus Roman No9 L';-inkscape-font-specification:NimbusRomNo9L-Regu;writing-mode:lr-tb;fill:#000000;fill-opacity:1;fill-rule:nonzero;stroke:none"
         id="text124"><tspan
           x="0 5.7464509 9.2772102"
           y="0"
           sodipodi:role="line"
           id="tspan122">Oct</tspan></text>
      <text
         xml:space="preserve"
         transform="matrix(1,0,0,-1,193.48403,5.3254631)"
         style="font-variant:normal;font-size:7.97011px;font-family:'Nimbus Roman No9 L';-inkscape-font-specification:NimbusRomNo9L-Regu;writing-mode:lr-tb;fill:#000000;fill-opacity:1;fill-rule:nonzero;stroke:none"
         id="text128"><tspan
           x="0 5.7464509 9.6120358"
           y="0"
           sodipodi:role="line"
           id="tspan126">Nov</tspan></text>
      <text
         xml:space="preserve"
         transform="matrix(1,0,0,-1,209.71582,5.3254631)"
         style="font-variant:normal;font-size:7.97011px;font-family:'Nimbus Roman No9 L';-inkscape-font-specification:NimbusRomNo9L-Regu;writing-mode:lr-tb;fill:#000000;fill-opacity:1;fill-rule:nonzero;stroke:none"
         id="text132"><tspan
           x="0 5.7464509 9.2772102"
           y="0"
           sodipodi:role="line"
           id="tspan130">Dec</tspan></text>
      <path
         d="m 28.406864,14.129119 h 3"
         style="fill:#000000;fill-opacity:1;fill-rule:nonzero;stroke:#000000;stroke-width:0.5;stroke-linecap:butt;stroke-linejoin:round;stroke-miterlimit:10;stroke-dasharray:none;stroke-opacity:1"
         id="path134" />
      <path
         d="m 223.92,14.129119 h -3"
         style="fill:#000000;fill-opacity:1;fill-rule:nonzero;stroke:#000000;stroke-width:0.5;stroke-linecap:butt;stroke-linejoin:round;stroke-miterlimit:10;stroke-dasharray:none;stroke-opacity:1"
         id="path136" />
      <text
         xml:space="preserve"
         transform="matrix(1,0,0,-1,14.729119,11.427291)"
         style="font-variant:normal;font-size:7.97011px;font-family:'Nimbus Roman No9 L';-inkscape-font-specification:NimbusRomNo9L-Regu;writing-mode:lr-tb;fill:#000000;fill-opacity:1;fill-rule:nonzero;stroke:none"
         id="text140"><tspan
           x="0"
           y="0"
           id="tspan138">0</tspan></text>
      <text
         xml:space="preserve"
         transform="matrix(1,0,0,-1,18.714175,11.427291)"
         style="font-style:italic;font-variant:normal;font-weight:normal;font-size:7.97011px;font-family:'Computer Modern';-inkscape-font-specification:CMMI10;writing-mode:lr-tb;fill:#000000;fill-opacity:1;fill-rule:nonzero;stroke:none"
         id="text144"><tspan
           x="0"
           y="0"
           id="tspan142">.</tspan></text>
      <text
         xml:space="preserve"
         transform="matrix(1,0,0,-1,20.921808,11.427291)"
         style="font-variant:normal;font-size:7.97011px;font-family:'Nimbus Roman No9 L';-inkscape-font-specification:NimbusRomNo9L-Regu;writing-mode:lr-tb;fill:#000000;fill-opacity:1;fill-rule:nonzero;stroke:none"
         id="text148"><tspan
           x="0"
           y="0"
           id="tspan146">0</tspan></text>
      <path
         d="m 28.406864,35.484698 h 3"
         style="fill:#000000;fill-opacity:1;fill-rule:nonzero;stroke:#000000;stroke-width:0.5;stroke-linecap:butt;stroke-linejoin:round;stroke-miterlimit:10;stroke-dasharray:none;stroke-opacity:1"
         id="path150" />
      <path
         d="m 223.92,35.484698 h -3"
         style="fill:#000000;fill-opacity:1;fill-rule:nonzero;stroke:#000000;stroke-width:0.5;stroke-linecap:butt;stroke-linejoin:round;stroke-miterlimit:10;stroke-dasharray:none;stroke-opacity:1"
         id="path152" />
      <text
         xml:space="preserve"
         transform="matrix(1,0,0,-1,14.729119,32.78287)"
         style="font-variant:normal;font-size:7.97011px;font-family:'Nimbus Roman No9 L';-inkscape-font-specification:NimbusRomNo9L-Regu;writing-mode:lr-tb;fill:#000000;fill-opacity:1;fill-rule:nonzero;stroke:none"
         id="text156"><tspan
           x="0"
           y="0"
           id="tspan154">0</tspan></text>
      <text
         xml:space="preserve"
         transform="matrix(1,0,0,-1,18.714175,32.78287)"
         style="font-style:italic;font-variant:normal;font-weight:normal;font-size:7.97011px;font-family:'Computer Modern';-inkscape-font-specification:CMMI10;writing-mode:lr-tb;fill:#000000;fill-opacity:1;fill-rule:nonzero;stroke:none"
         id="text160"><tspan
           x="0"
           y="0"
           id="tspan158">.</tspan></text>
      <text
         xml:space="preserve"
         transform="matrix(1,0,0,-1,20.921808,32.78287)"
         style="font-variant:normal;font-size:7.97011px;font-family:'Nimbus Roman No9 L';-inkscape-font-specification:NimbusRomNo9L-Regu;writing-mode:lr-tb;fill:#000000;fill-opacity:1;fill-rule:nonzero;stroke:none"
         id="text164"><tspan
           x="0"
           y="0"
           id="tspan162">1</tspan></text>
      <path
         d="m 28.406864,56.840277 h 3"
         style="fill:#000000;fill-opacity:1;fill-rule:nonzero;stroke:#000000;stroke-width:0.5;stroke-linecap:butt;stroke-linejoin:round;stroke-miterlimit:10;stroke-dasharray:none;stroke-opacity:1"
         id="path166" />
      <path
         d="m 223.92,56.840277 h -3"
         style="fill:#000000;fill-opacity:1;fill-rule:nonzero;stroke:#000000;stroke-width:0.5;stroke-linecap:butt;stroke-linejoin:round;stroke-miterlimit:10;stroke-dasharray:none;stroke-opacity:1"
         id="path168" />
      <text
         xml:space="preserve"
         transform="matrix(1,0,0,-1,14.729119,54.138449)"
         style="font-variant:normal;font-size:7.97011px;font-family:'Nimbus Roman No9 L';-inkscape-font-specification:NimbusRomNo9L-Regu;writing-mode:lr-tb;fill:#000000;fill-opacity:1;fill-rule:nonzero;stroke:none"
         id="text172"><tspan
           x="0"
           y="0"
           id="tspan170">0</tspan></text>
      <text
         xml:space="preserve"
         transform="matrix(1,0,0,-1,18.714175,54.138449)"
         style="font-style:italic;font-variant:normal;font-weight:normal;font-size:7.97011px;font-family:'Computer Modern';-inkscape-font-specification:CMMI10;writing-mode:lr-tb;fill:#000000;fill-opacity:1;fill-rule:nonzero;stroke:none"
         id="text176"><tspan
           x="0"
           y="0"
           id="tspan174">.</tspan></text>
      <text
         xml:space="preserve"
         transform="matrix(1,0,0,-1,20.921808,54.138449)"
         style="font-variant:normal;font-size:7.97011px;font-family:'Nimbus Roman No9 L';-inkscape-font-specification:NimbusRomNo9L-Regu;writing-mode:lr-tb;fill:#000000;fill-opacity:1;fill-rule:nonzero;stroke:none"
         id="text180"><tspan
           x="0"
           y="0"
           id="tspan178">2</tspan></text>
      <path
         d="m 28.406864,78.195856 h 3"
         style="fill:#000000;fill-opacity:1;fill-rule:nonzero;stroke:#000000;stroke-width:0.5;stroke-linecap:butt;stroke-linejoin:round;stroke-miterlimit:10;stroke-dasharray:none;stroke-opacity:1"
         id="path182" />
      <path
         d="m 223.92,78.195856 h -3"
         style="fill:#000000;fill-opacity:1;fill-rule:nonzero;stroke:#000000;stroke-width:0.5;stroke-linecap:butt;stroke-linejoin:round;stroke-miterlimit:10;stroke-dasharray:none;stroke-opacity:1"
         id="path184" />
      <text
         xml:space="preserve"
         transform="matrix(1,0,0,-1,14.729119,75.494028)"
         style="font-variant:normal;font-size:7.97011px;font-family:'Nimbus Roman No9 L';-inkscape-font-specification:NimbusRomNo9L-Regu;writing-mode:lr-tb;fill:#000000;fill-opacity:1;fill-rule:nonzero;stroke:none"
         id="text188"><tspan
           x="0"
           y="0"
           id="tspan186">0</tspan></text>
      <text
         xml:space="preserve"
         transform="matrix(1,0,0,-1,18.714175,75.494028)"
         style="font-style:italic;font-variant:normal;font-weight:normal;font-size:7.97011px;font-family:'Computer Modern';-inkscape-font-specification:CMMI10;writing-mode:lr-tb;fill:#000000;fill-opacity:1;fill-rule:nonzero;stroke:none"
         id="text192"><tspan
           x="0"
           y="0"
           id="tspan190">.</tspan></text>
      <text
         xml:space="preserve"
         transform="matrix(1,0,0,-1,20.921808,75.494028)"
         style="font-variant:normal;font-size:7.97011px;font-family:'Nimbus Roman No9 L';-inkscape-font-specification:NimbusRomNo9L-Regu;writing-mode:lr-tb;fill:#000000;fill-opacity:1;fill-rule:nonzero;stroke:none"
         id="text196"><tspan
           x="0"
           y="0"
           id="tspan194">3</tspan></text>
      <path
         d="m 28.406864,99.551435 h 3"
         style="fill:#000000;fill-opacity:1;fill-rule:nonzero;stroke:#000000;stroke-width:0.5;stroke-linecap:butt;stroke-linejoin:round;stroke-miterlimit:10;stroke-dasharray:none;stroke-opacity:1"
         id="path198" />
      <path
         d="m 223.92,99.551435 h -3"
         style="fill:#000000;fill-opacity:1;fill-rule:nonzero;stroke:#000000;stroke-width:0.5;stroke-linecap:butt;stroke-linejoin:round;stroke-miterlimit:10;stroke-dasharray:none;stroke-opacity:1"
         id="path200" />
      <text
         xml:space="preserve"
         transform="matrix(1,0,0,-1,14.729119,96.849607)"
         style="font-variant:normal;font-size:7.97011px;font-family:'Nimbus Roman No9 L';-inkscape-font-specification:NimbusRomNo9L-Regu;writing-mode:lr-tb;fill:#000000;fill-opacity:1;fill-rule:nonzero;stroke:none"
         id="text204"><tspan
           x="0"
           y="0"
           id="tspan202">0</tspan></text>
      <text
         xml:space="preserve"
         transform="matrix(1,0,0,-1,18.714175,96.849607)"
         style="font-style:italic;font-variant:normal;font-weight:normal;font-size:7.97011px;font-family:'Computer Modern';-inkscape-font-specification:CMMI10;writing-mode:lr-tb;fill:#000000;fill-opacity:1;fill-rule:nonzero;stroke:none"
         id="text208"><tspan
           x="0"
           y="0"
           id="tspan206">.</tspan></text>
      <text
         xml:space="preserve"
         transform="matrix(1,0,0,-1,20.921808,96.849607)"
         style="font-variant:normal;font-size:7.97011px;font-family:'Nimbus Roman No9 L';-inkscape-font-specification:NimbusRomNo9L-Regu;writing-mode:lr-tb;fill:#000000;fill-opacity:1;fill-rule:nonzero;stroke:none"
         id="text212"><tspan
           x="0"
           y="0"
           id="tspan210">4</tspan></text>
      <path
         d="m 28.406864,120.90701 h 3"
         style="fill:#000000;fill-opacity:1;fill-rule:nonzero;stroke:#000000;stroke-width:0.5;stroke-linecap:butt;stroke-linejoin:round;stroke-miterlimit:10;stroke-dasharray:none;stroke-opacity:1"
         id="path214" />
      <path
         d="m 223.92,120.90701 h -3"
         style="fill:#000000;fill-opacity:1;fill-rule:nonzero;stroke:#000000;stroke-width:0.5;stroke-linecap:butt;stroke-linejoin:round;stroke-miterlimit:10;stroke-dasharray:none;stroke-opacity:1"
         id="path216" />
      <text
         xml:space="preserve"
         transform="matrix(1,0,0,-1,14.729119,118.20519)"
         style="font-variant:normal;font-size:7.97011px;font-family:'Nimbus Roman No9 L';-inkscape-font-specification:NimbusRomNo9L-Regu;writing-mode:lr-tb;fill:#000000;fill-opacity:1;fill-rule:nonzero;stroke:none"
         id="text220"><tspan
           x="0"
           y="0"
           id="tspan218">0</tspan></text>
      <text
         xml:space="preserve"
         transform="matrix(1,0,0,-1,18.714175,118.20519)"
         style="font-style:italic;font-variant:normal;font-weight:normal;font-size:7.97011px;font-family:'Computer Modern';-inkscape-font-specification:CMMI10;writing-mode:lr-tb;fill:#000000;fill-opacity:1;fill-rule:nonzero;stroke:none"
         id="text224"><tspan
           x="0"
           y="0"
           id="tspan222">.</tspan></text>
      <text
         xml:space="preserve"
         transform="matrix(1,0,0,-1,20.921808,118.20519)"
         style="font-variant:normal;font-size:7.97011px;font-family:'Nimbus Roman No9 L';-inkscape-font-specification:NimbusRomNo9L-Regu;writing-mode:lr-tb;fill:#000000;fill-opacity:1;fill-rule:nonzero;stroke:none"
         id="text228"><tspan
           x="0"
           y="0"
           id="tspan226">5</tspan></text>
      <path
         d="m 28.406864,142.26259 h 3"
         style="fill:#000000;fill-opacity:1;fill-rule:nonzero;stroke:#000000;stroke-width:0.5;stroke-linecap:butt;stroke-linejoin:round;stroke-miterlimit:10;stroke-dasharray:none;stroke-opacity:1"
         id="path230" />
      <path
         d="m 223.92,142.26259 h -3"
         style="fill:#000000;fill-opacity:1;fill-rule:nonzero;stroke:#000000;stroke-width:0.5;stroke-linecap:butt;stroke-linejoin:round;stroke-miterlimit:10;stroke-dasharray:none;stroke-opacity:1"
         id="path232" />
      <text
         xml:space="preserve"
         transform="matrix(1,0,0,-1,14.729119,139.56077)"
         style="font-variant:normal;font-size:7.97011px;font-family:'Nimbus Roman No9 L';-inkscape-font-specification:NimbusRomNo9L-Regu;writing-mode:lr-tb;fill:#000000;fill-opacity:1;fill-rule:nonzero;stroke:none"
         id="text236"><tspan
           x="0"
           y="0"
           id="tspan234">0</tspan></text>
      <text
         xml:space="preserve"
         transform="matrix(1,0,0,-1,18.714175,139.56077)"
         style="font-style:italic;font-variant:normal;font-weight:normal;font-size:7.97011px;font-family:'Computer Modern';-inkscape-font-specification:CMMI10;writing-mode:lr-tb;fill:#000000;fill-opacity:1;fill-rule:nonzero;stroke:none"
         id="text240"><tspan
           x="0"
           y="0"
           id="tspan238">.</tspan></text>
      <text
         xml:space="preserve"
         transform="matrix(1,0,0,-1,20.921808,139.56077)"
         style="font-variant:normal;font-size:7.97011px;font-family:'Nimbus Roman No9 L';-inkscape-font-specification:NimbusRomNo9L-Regu;writing-mode:lr-tb;fill:#000000;fill-opacity:1;fill-rule:nonzero;stroke:none"
         id="text244"><tspan
           x="0"
           y="0"
           id="tspan242">6</tspan></text>
      <path
         d="m 28.406864,163.61817 h 3"
         style="fill:#000000;fill-opacity:1;fill-rule:nonzero;stroke:#000000;stroke-width:0.5;stroke-linecap:butt;stroke-linejoin:round;stroke-miterlimit:10;stroke-dasharray:none;stroke-opacity:1"
         id="path246" />
      <path
         d="m 223.92,163.61817 h -3"
         style="fill:#000000;fill-opacity:1;fill-rule:nonzero;stroke:#000000;stroke-width:0.5;stroke-linecap:butt;stroke-linejoin:round;stroke-miterlimit:10;stroke-dasharray:none;stroke-opacity:1"
         id="path248" />
      <text
         xml:space="preserve"
         transform="matrix(1,0,0,-1,14.729119,160.91634)"
         style="font-variant:normal;font-size:7.97011px;font-family:'Nimbus Roman No9 L';-inkscape-font-specification:NimbusRomNo9L-Regu;writing-mode:lr-tb;fill:#000000;fill-opacity:1;fill-rule:nonzero;stroke:none"
         id="text252"><tspan
           x="0"
           y="0"
           id="tspan250">0</tspan></text>
      <text
         xml:space="preserve"
         transform="matrix(1,0,0,-1,18.714175,160.91634)"
         style="font-style:italic;font-variant:normal;font-weight:normal;font-size:7.97011px;font-family:'Computer Modern';-inkscape-font-specification:CMMI10;writing-mode:lr-tb;fill:#000000;fill-opacity:1;fill-rule:nonzero;stroke:none"
         id="text256"><tspan
           x="0"
           y="0"
           id="tspan254">.</tspan></text>
      <text
         xml:space="preserve"
         transform="matrix(1,0,0,-1,20.921808,160.91634)"
         style="font-variant:normal;font-size:7.97011px;font-family:'Nimbus Roman No9 L';-inkscape-font-specification:NimbusRomNo9L-Regu;writing-mode:lr-tb;fill:#000000;fill-opacity:1;fill-rule:nonzero;stroke:none"
         id="text260"><tspan
           x="0"
           y="0"
           id="tspan258">7</tspan></text>
      <text
         xml:space="preserve"
         transform="matrix(0,1,1,0,9.003656,36.745586)"
         style="font-variant:normal;font-size:7.97011px;font-family:'Nimbus Roman No9 L';-inkscape-font-specification:NimbusRomNo9L-Regu;writing-mode:lr-tb;fill:#000000;fill-opacity:1;fill-rule:nonzero;stroke:none"
         id="text264"><tspan
           x="0 5.7464509 9.2772102 11.484932 13.692653 19.670237 25.863014 29.393774 32.924534 38.902119 42.887173 46.417934 49.948692 54.148941 58.133999 61.664757 67.857536 71.38829 75.373352 81.350937 83.558655 89.53624 96.613701"
           y="0"
           sodipodi:role="line"
           id="tspan262">DailymeanheatdemandinMW</tspan></text>
    </g>
    <g
       id="g266">
      <g
         id="g268"
         clip-path="url(#clipPath272)">
        <path
           d="m 28.406864,94.619631 0.537124,5.134291 0.537124,-1.01395 0.537124,1.395488 0.537124,-0.446335 0.537124,-20.515727 0.537124,13.187464 0.537124,0.811156 0.537124,4.469047 0.537124,0.441858 0.537124,6.020547 0.537124,-1.95451 0.537124,-12.318318 1.074248,16.443248 0.537124,0.52707 0.537124,-7.531483 0.537124,6.792713 0.537124,0.85109 0.537124,-15.16924 1.074248,14.7177 0.537124,-1.96954 0.537124,5.26455 0.537124,-4.92752 0.537124,2.69446 0.537124,-17.280886 0.537124,3.107237 0.537124,13.264299 0.537124,-0.73274 0.537124,-1.70838 0.537124,-5.601624 0.537124,-1.737219 0.537124,-15.939326 0.537124,5.85248 0.537124,10.192883 0.537124,3.820826 0.537124,1.96056 0.537124,-4.171419 0.537124,-2.089109 0.537124,-9.857461 0.537124,-0.03878 0.537124,14.783799 0.537124,1.49815 0.537124,-0.43297 0.537124,-3.187861 0.537124,0.08067 0.537124,-8.317677 0.537124,-1.796101 0.537124,14.179179 1.074248,-2.58521 0.537124,-9.512366 0.537124,3.684425 0.537124,-11.391811 0.537124,1.645507 0.537124,10.284749 0.537124,-0.480448 0.537124,-7.254831 0.537124,-3.110264 0.537124,1.60058 0.537124,-10.361221 0.537124,9.071412 0.537124,2.264905 0.537124,0.969224 0.537124,-1.833402 0.537124,-2.40224 0.537124,-3.188861 0.537124,-6.721716 0.537124,-4.076323 1.074248,14.438198 0.537124,-8.677433 0.537124,2.02496 0.537124,-9.560662 0.537124,2.461239 0.537124,-7.957744 1.074248,16.352479 0.537124,-1.64875 0.537124,-6.549497 0.537124,-0.112455 1.074248,-3.825403 0.537124,0.264782 0.537124,3.879085 0.537124,-0.0018 0.537124,-3.679831 0.537124,-2.886403 0.537124,-10.360686 0.537124,-5.59093 0.537124,-0.760808 0.537124,14.048373 0.537124,4.724904 0.537124,-0.405808 0.537124,-3.431179 0.537124,-6.026483 0.537124,-3.012204 0.537124,12.788184 0.537124,-1.942384 0.537124,0.305676 0.537124,-2.757953 0.537124,-1.207742 0.537124,-4.267317 0.537124,-1.390939 1.074248,6.437901 0.537124,-4.635777 0.537124,2.424681 0.537124,-3.851947 1.074248,-21.711101 0.537124,9.457484 0.537124,6.974233 0.537124,-2.183604 1.074248,-8.337468 0.537124,-5.596759 0.537124,-3.380464 0.537124,13.108938 0.537124,0.453363 0.537124,-12.534643 0.537124,-0.07353 0.537124,5.070223 0.537124,-4.914222 0.537124,-0.128569 0.537124,7.319229 0.537124,-3.45769 0.537124,-0.225109 0.537124,-9.24158 0.537124,1.493019 0.537124,-2.244047 1.074248,3.584973 0.537124,2.825162 0.53712,4.015929 1.07425,-8.168281 0.53713,-0.351383 0.53712,-4.997116 0.53712,1.162175 0.53713,4.443129 0.53712,-0.439544 0.53713,1.141171 0.53712,-1.536049 0.53712,-4.762402 1.07425,3.045217 0.53713,3.893975 1.07424,-3.55198 0.53713,-1.103553 0.53712,0.442836 0.53713,-1.580244 0.53712,-0.489062 0.53712,1.514316 0.53713,-0.165325 0.53712,0.718626 0.53713,-0.22542 0.53712,-2.459542 0.53712,-0.08697 0.53713,0.189434 0.53712,0.02202 0.53713,2.491085 1.07424,-1.691632 0.53713,-1.55747 0.53712,0.260153 0.53713,1.507613 0.53712,-0.681972 0.53712,0.0899 0.53713,-1.50514 0.53712,0.197775 0.53713,-1.289467 0.53712,-0.02377 0.53712,1.732482 0.53713,0.850553 0.53712,-2.114914 0.53713,0.839439 0.53712,-2.156364 0.53712,-0.675436 0.53713,0.230655 0.53712,0.807289 0.53713,-0.405368 0.53712,2.14983 0.53712,-1.942503 0.53713,0.37648 0.53712,-1.813121 0.53713,0.806979 0.53712,-0.4138 0.53712,2.935585 0.53713,-1.36626 0.53712,0.498076 0.53713,-0.755165 0.53712,7.36e-4 0.53712,-0.948581 0.53713,0.512087 0.53712,0.992285 0.53713,-0.99036 1.07424,-1.481065 0.53713,0.830704 0.53712,-0.990637 0.53713,0.55024 0.53712,1.365946 0.53712,-0.809125 0.53713,-0.398422 0.53712,0.530305 0.53713,0.05634 0.53712,-0.739974 0.53712,-0.290423 0.53713,0.568199 0.53712,-0.61252 0.53713,-0.817081 1.07424,0.85584 0.53713,-0.102367 0.53712,0.394863 0.53713,-0.501874 0.53712,0.78337 0.53712,-0.07887 0.53713,-0.206286 0.53712,-1.476423 0.53713,1.482821 0.53712,0.658836 0.53712,1.689288 0.53713,-2.689669 0.53712,0.237312 0.53713,-0.201094 1.07424,-0.70967 1.07425,2.212275 0.53713,-1.59721 0.53712,0.491736 0.53712,0.192114 0.53713,0.063 0.53712,-0.527601 0.53713,2.686062 0.53712,-0.318084 0.53712,2.320512 0.53713,-1.582676 1.07425,-1.23034 0.53712,0.553263 0.53712,2.134777 0.53713,0.454209 0.53712,-0.748234 0.53713,-0.220602 0.53712,0.298098 0.53712,-0.429632 0.53713,0.203138 0.53712,-0.298664 0.53713,1.433637 0.53712,0.240252 0.53712,-0.358602 0.53713,2.63e-4 0.53712,-0.120328 0.53713,4.065329 0.53712,3.118836 1.07425,-3.667187 0.53712,0.371543 0.53713,1.994548 0.53712,-4.476223 0.53712,-0.06612 0.53713,7.074708 0.53712,2.59568 0.53713,0.272498 0.53712,-3.940778 0.53712,2.321975 0.53713,-3.536724 0.53712,0.206105 0.53713,2.50332 0.53712,10.867218 0.53712,-1.088189 0.53713,-7.460113 0.53712,0.184235 0.53713,-1.188545 0.53712,-4.015412 0.53712,16.622462 0.53713,11.191713 0.53712,-5.663746 0.53713,-2.417923 0.53712,-3.195851 0.53712,-8.93403 0.53713,2.998753 0.53712,16.300379 0.53713,3.923948 0.53712,-0.05552 0.53712,-5.40727 0.53713,-2.359277 0.53712,-5.867528 0.53713,-3.090965 0.53712,14.673708 0.53712,6.963951 0.53713,-1.963913 1.07425,-12.012806 0.53712,-3.810909 0.53712,-0.732103 0.53713,16.094817 0.53712,8.487569 0.53713,-3.62743 0.53712,-1.634429 0.53712,-2.039047 0.53713,-5.620143 0.53712,-7.405568 0.53713,16.393751 0.53712,10.546782 0.53712,1.616255 0.53713,-4.145377 1.07425,-4.311715 0.53712,-2.927821 0.53712,5.756121 0.53713,4.016132 0.53712,1.991095 0.53713,-1.463278 0.53712,5.365532 0.53712,-10.690996 0.53713,2.838297 0.53712,4.745541 0.53713,2.015228 0.53712,3.026331 1.07425,7.803693 0.53712,-8.404751 0.53713,-2.928546 0.53712,14.812672 0.53712,1.528274 0.53713,-4.046098 0.53712,2.673893 0.53713,-3.571897 0.53712,-4.411958 0.53712,2.87173 0.53713,12.634317 0.53712,-0.7246 0.53713,-4.509657 0.53712,4.133427 0.53712,0.47262 0.53713,-24.339423 0.53712,8.586547 0.53713,12.046836 0.53712,2.70826 0.53712,1.27396 0.53713,-2.45556 0.53712,1.73894 0.53713,-16.13163 1.07424,14.12197 0.53713,0.20746 0.53712,5.80846 0.53713,-0.71588 0.53712,-4.44794 0.53712,-14.638609 0.53713,5.629273 0.53712,3.701999 0.53713,0.591202 0.53712,-4.321931 0.53712,-0.644147 0.53713,-4.075279 0.53712,6.802259 0.53713,-1.816542 0.53712,-2.555968 v 0"
           style="fill:none;stroke:#c04848;stroke-width:1;stroke-linecap:square;stroke-linejoin:round;stroke-miterlimit:10;stroke-dasharray:none;stroke-opacity:1"
           id="path274" />
      </g>
    </g>
    <g
       id="g276">
      <path
         d="M 28.406864,14.129119 V 163.61817"
         style="fill:none;stroke:#000000;stroke-width:0.5;stroke-linecap:square;stroke-linejoin:miter;stroke-miterlimit:10;stroke-dasharray:none;stroke-opacity:1"
         id="path278" />
      <path
         d="M 223.92,14.129119 V 163.61817"
         style="fill:none;stroke:#000000;stroke-width:0.5;stroke-linecap:square;stroke-linejoin:miter;stroke-miterlimit:10;stroke-dasharray:none;stroke-opacity:1"
         id="path280" />
      <path
         d="M 28.406864,14.129119 H 223.92"
         style="fill:none;stroke:#000000;stroke-width:0.5;stroke-linecap:square;stroke-linejoin:miter;stroke-miterlimit:10;stroke-dasharray:none;stroke-opacity:1"
         id="path282" />
      <path
         d="M 28.406864,163.61817 H 223.92"
         style="fill:none;stroke:#000000;stroke-width:0.5;stroke-linecap:square;stroke-linejoin:miter;stroke-miterlimit:10;stroke-dasharray:none;stroke-opacity:1"
         id="path284" />
      <path
         d="m 94.588027,153.61817 h 8.000003 8"
         style="fill:none;stroke:#c04848;stroke-width:1;stroke-linecap:square;stroke-linejoin:round;stroke-miterlimit:10;stroke-dasharray:none;stroke-opacity:1"
         id="path286" />
      <text
         xml:space="preserve"
         transform="matrix(1,0,0,-1,116.98803,150.81817)"
         style="font-variant:normal;font-size:7.97011px;font-family:'Nimbus Roman No9 L';-inkscape-font-specification:NimbusRomNo9L-Regu;writing-mode:lr-tb;fill:#000000;fill-opacity:1;fill-rule:nonzero;stroke:none"
         id="text290"><tspan
           x="0 7.0774593 10.608219 14.593275 16.800997 20.331757"
           y="0"
           sodipodi:role="line"
           id="tspan288">Median</tspan></text>
      <path
         d="m 94.588027,139.49271 h 16.000003 v 5.6 H 94.588027 Z"
         style="fill:#c04848;fill-opacity:0.23;fill-rule:nonzero;stroke:#c04848;stroke-width:1;stroke-linecap:butt;stroke-linejoin:miter;stroke-miterlimit:10;stroke-dasharray:none;stroke-opacity:0.23"
         id="path292" />
      <text
         xml:space="preserve"
         transform="matrix(1,0,0,-1,116.98803,139.49271)"
         style="font-variant:normal;font-size:7.97011px;font-family:'Nimbus Roman No9 L';-inkscape-font-specification:NimbusRomNo9L-Regu;writing-mode:lr-tb;fill:#000000;fill-opacity:1;fill-rule:nonzero;stroke:none"
         id="text296"><tspan
           x="0 3.9850559 7.9701118 16.593773 18.801495 22.786551 24.994272 28.525032 31.171108 34.956913 38.487675"
           y="0"
           sodipodi:role="line"
           id="tspan294">50%interval</tspan></text>
      <path
         d="m 94.588027,128.16725 h 16.000003 v 5.6 H 94.588027 Z"
         style="fill:#c04848;fill-opacity:0.12;fill-rule:nonzero;stroke:#c04848;stroke-width:1;stroke-linecap:butt;stroke-linejoin:miter;stroke-miterlimit:10;stroke-dasharray:none;stroke-opacity:0.12"
         id="path298" />
      <text
         xml:space="preserve"
         transform="matrix(1,0,0,-1,116.98803,128.16725)"
         style="font-variant:normal;font-size:7.97011px;font-family:'Nimbus Roman No9 L';-inkscape-font-specification:NimbusRomNo9L-Regu;writing-mode:lr-tb;fill:#000000;fill-opacity:1;fill-rule:nonzero;stroke:none"
         id="text302"><tspan
           x="0 3.9850559 7.9701118 16.593773 18.801495 22.786551 24.994272 28.525032 31.171108 34.956913 38.487675"
           y="0"
           sodipodi:role="line"
           id="tspan300">95%interval</tspan></text>
    </g>
  </g>
</svg>
